<svg width="159" height="218" viewBox="0 0 159 218" fill="none" xmlns="http://www.w3.org/2000/svg">
<path d="M158.355 218H2.93555V179.914L55.2305 127.033C70.1719 111.408 79.9375 100.764 84.5273 95.0996C89.1172 89.3379 92.291 84.4062 94.0488 80.3047C95.9043 76.2031 96.832 71.9062 96.832 67.4141C96.832 61.8477 95.0254 57.4531 91.4121 54.2305C87.7988 51.0078 82.7207 49.3965 76.1777 49.3965C69.4395 49.3965 62.6035 51.3496 55.6699 55.2559C48.834 59.0645 41.0703 64.7285 32.3789 72.248L0.591797 35.041C11.627 25.1777 20.9043 18.1465 28.4238 13.9473C35.9434 9.65039 44.0977 6.37891 52.8867 4.13281C61.7734 1.88672 71.7344 0.763672 82.7695 0.763672C96.6367 0.763672 108.99 3.20508 119.83 8.08789C130.768 12.9707 139.215 19.9531 145.172 29.0352C151.227 38.0195 154.254 48.127 154.254 59.3574C154.254 67.7559 153.18 75.5195 151.031 82.6484C148.98 89.7773 145.758 96.8086 141.363 103.742C136.969 110.578 131.109 117.805 123.785 125.422C116.559 133.039 101.08 147.492 77.3496 168.781V170.246H158.355V218Z" fill="#E6E6E6"/>
</svg>
